<svg width="806" height="513" viewBox="0 0 806 513" fill="none" xmlns="http://www.w3.org/2000/svg">
<path d="M0.5 21.5H691C754.237 21.5 805.5 72.7634 805.5 136V512.5H115C51.7634 512.5 0.5 461.237 0.5 398V21.5Z" stroke="#FCFCFC"/>
<path d="M19 0H706C761.228 0 806 44.7715 806 100V492H119C63.7715 492 19 447.228 19 392V0Z" fill="#E6DEFE"/>
<ellipse cx="348.047" cy="411.849" rx="162.43" ry="29.7701" fill="#A283FD"/>
<path d="M322.841 282.905C323.11 278.228 323.008 274.323 322.841 271.486C322.273 261.848 321.822 255.528 317.451 250.545C315.211 247.999 312.636 246.588 310.883 245.817" stroke="#1C202E" stroke-width="4" stroke-linecap="round" stroke-linejoin="round"/>
<path d="M308.922 295.402C308.98 289.823 310.478 285.713 311.555 283.378C313.206 279.778 314.952 275.981 318.879 274.548C322.844 273.101 326.713 274.919 327.52 275.297C333.645 278.178 337.129 286.28 336.722 295.772C327.455 295.649 318.188 295.525 308.922 295.394V295.402Z" fill="#1C202E" stroke="#1C202E" stroke-width="1.45472" stroke-linecap="round" stroke-linejoin="round"/>
<path d="M313.99 294.471H317.852C318.162 294.471 318.412 294.721 318.412 295.031V308.887C318.412 309.196 318.162 309.447 317.852 309.447H313.99C313.681 309.447 313.43 309.196 313.43 308.887V295.031C313.43 294.721 313.681 294.471 313.99 294.471Z" fill="#1C202E" stroke="#1C202E" stroke-width="0.727358"/>
<path d="M328.158 294.471H332.02C332.33 294.471 332.58 294.721 332.58 295.031V308.887C332.58 309.196 332.33 309.447 332.02 309.447H328.158C327.849 309.447 327.598 309.196 327.598 308.887V295.031C327.598 294.721 327.849 294.471 328.158 294.471Z" fill="#1C202E" stroke="#1C202E" stroke-width="0.727358"/>
<path d="M579.787 217.232H514.797C512.411 217.232 510.477 219.167 510.477 221.553V291.452C510.477 293.838 512.411 295.773 514.797 295.773H579.787C582.173 295.773 584.107 293.838 584.107 291.452V221.553C584.107 219.167 582.173 217.232 579.787 217.232Z" fill="#BDA7FE"/>
<path d="M566.378 270.155C567.04 269.348 570.233 265.347 571.091 259.078C571.215 258.168 571.266 257.317 571.28 256.503C571.259 255.681 571.215 254.83 571.091 253.928C570.233 247.658 567.04 243.658 566.378 242.85C564.451 240.515 562.407 239.068 561.025 238.246C556.442 238.261 551.86 238.282 547.278 238.297C542.717 238.282 538.157 238.261 533.596 238.246C532.221 239.075 530.185 240.515 528.272 242.85C527.61 243.658 524.446 247.658 523.588 253.928C523.464 254.837 523.413 255.688 523.398 256.503C523.42 257.325 523.464 258.176 523.588 259.078C524.439 265.347 527.61 269.348 528.272 270.155C530.185 272.49 532.221 273.938 533.596 274.759C538.157 274.745 542.717 274.723 547.278 274.709C551.86 274.723 556.442 274.745 561.025 274.759C562.407 273.93 564.458 272.49 566.378 270.155Z" fill="#875EFC"/>
<path d="M519.021 227.954C520.583 227.954 521.85 226.687 521.85 225.124C521.85 223.562 520.583 222.295 519.021 222.295C517.458 222.295 516.191 223.562 516.191 225.124C516.191 226.687 517.458 227.954 519.021 227.954Z" fill="#875EFC"/>
<path d="M576.22 227.954C577.783 227.954 579.049 226.687 579.049 225.124C579.049 223.562 577.783 222.295 576.22 222.295C574.657 222.295 573.391 223.562 573.391 225.124C573.391 226.687 574.657 227.954 576.22 227.954Z" fill="#875EFC"/>
<path d="M519.021 289.561C520.583 289.561 521.85 288.294 521.85 286.732C521.85 285.169 520.583 283.902 519.021 283.902C517.458 283.902 516.191 285.169 516.191 286.732C516.191 288.294 517.458 289.561 519.021 289.561Z" fill="#875EFC"/>
<path d="M576.22 289.561C577.783 289.561 579.049 288.294 579.049 286.732C579.049 285.169 577.783 283.902 576.22 283.902C574.657 283.902 573.391 285.169 573.391 286.732C573.391 288.294 574.657 289.561 576.22 289.561Z" fill="#875EFC"/>
<path d="M539.954 245.512H537.423C536.937 245.512 536.543 245.906 536.543 246.392V255.622C536.543 256.109 536.937 256.503 537.423 256.503H539.954C540.44 256.503 540.834 256.109 540.834 255.622V246.392C540.834 245.906 540.44 245.512 539.954 245.512Z" fill="#1C202E"/>
<path d="M557.153 245.512H554.622C554.136 245.512 553.742 245.906 553.742 246.392V255.622C553.742 256.109 554.136 256.503 554.622 256.503H557.153C557.64 256.503 558.034 256.109 558.034 255.622V246.392C558.034 245.906 557.64 245.512 557.153 245.512Z" fill="#1C202E"/>
<path d="M551.001 262.453C551.001 260.409 549.328 258.743 547.292 258.743C545.255 258.743 543.582 260.416 543.582 262.453V265.719H551.008V262.453H551.001Z" fill="#1C202E"/>
<path d="M322.545 114.267C301.117 118.595 281.565 126.429 264.421 137.594C249.423 147.362 241.306 156.185 239.597 164.579C239.131 166.863 237.72 173.824 247.219 193.535C254.362 208.351 263.818 222.331 275.31 235.067C275.405 235.176 275.47 235.293 275.514 235.424C275.514 235.424 275.514 235.431 275.514 235.438C275.557 235.569 275.572 235.7 275.572 235.838V235.853C275.565 235.991 275.528 236.122 275.477 236.245C275.477 236.245 275.477 236.253 275.477 236.26C275.419 236.384 275.332 236.5 275.23 236.595C273.47 238.144 271.848 239.868 270.408 241.708C267.229 245.774 263.279 250.829 263.556 257.179C263.687 260.299 264.581 267.653 270.044 269.726C273.39 270.999 276.808 269.697 278.692 268.7C276.997 266.853 275.55 264.765 274.415 262.445C274.153 261.899 274.379 261.252 274.917 260.983C275.463 260.721 276.11 260.947 276.379 261.485C277.616 264.016 279.23 266.271 281.187 268.169C281.187 268.169 281.187 268.169 281.194 268.176C283.347 270.271 285.791 272.65 289.312 272.861C290.075 272.904 292.097 273.028 294.018 271.748C296.425 270.14 297.043 267.369 297.196 266.234C295.894 265.725 294.512 264.998 293.065 263.929C289.697 261.456 288.075 258.233 287.304 255.964C287.108 255.397 287.413 254.771 287.988 254.582C288.555 254.386 289.181 254.691 289.37 255.266C290.039 257.237 291.45 260.037 294.359 262.176C298.6 265.296 302.084 265.267 304.252 264.685C309.387 263.325 312.231 257.928 312.296 253.542C312.34 250.451 311.096 247.992 310.027 246.465C309.619 246.69 309.183 246.894 308.725 247.047C307.794 247.367 306.877 247.483 306.034 247.483C304.441 247.483 303.073 247.061 302.193 246.698C301.539 247.534 300.768 248.298 299.887 248.923C299.691 249.062 299.473 249.127 299.255 249.127C298.913 249.127 298.578 248.967 298.367 248.676C298.018 248.189 298.127 247.505 298.615 247.156C299.844 246.276 300.833 245.112 301.466 243.803C301.822 243.068 302.077 242.275 302.222 241.461C302.324 240.864 302.891 240.464 303.481 240.573C304.077 240.675 304.47 241.242 304.368 241.832C304.193 242.85 303.873 243.839 303.43 244.756C303.415 244.777 303.401 244.799 303.393 244.821C304.492 245.214 306.23 245.585 308.019 244.981C311.54 243.781 312.849 239.664 312.863 237.191C312.9 232.609 309.11 229.161 305.568 227.91C301.589 226.499 297.967 227.895 296.592 228.565H296.585C296.556 228.579 296.527 228.586 296.498 228.594C296.454 228.608 296.411 228.623 296.367 228.637C296.338 228.637 296.309 228.645 296.28 228.652C296.236 228.652 296.185 228.666 296.142 228.666C296.134 228.666 296.127 228.666 296.112 228.666C296.105 228.666 296.091 228.666 296.083 228.666C295.974 228.666 295.858 228.645 295.756 228.608C295.756 228.608 295.741 228.608 295.741 228.601C295.632 228.557 295.531 228.499 295.436 228.426C295.436 228.426 295.429 228.426 295.421 228.419C295.421 228.419 295.414 228.412 295.407 228.405C267.207 204.896 252.776 177.904 260.305 162.753C264.931 153.443 278.278 147.282 293.741 140.14C301.015 136.779 308.579 133.95 316.253 131.717L322.559 114.253L322.545 114.267Z" fill="#875EFC"/>
<path d="M409.697 62.3342C408.861 63.1125 408.781 64.3999 409.508 65.2727L409.573 65.3527C409.966 65.7819 410.497 66.0219 411.072 66.0437C411.639 66.0728 412.192 65.8619 412.606 65.4764C414.127 64.0653 416.127 63.3088 418.142 63.3088C419.058 63.3088 419.975 63.4689 420.847 63.7889C423.822 64.8945 425.866 67.6803 426.048 70.9025C426.114 72.0808 427.139 73.0045 428.303 72.9173C429.481 72.8518 430.383 71.8408 430.318 70.6552C430.041 65.7382 426.899 61.4614 422.324 59.7739C417.967 58.1592 413.123 59.1411 409.69 62.3342H409.697Z" fill="#875EFC"/>
<path d="M365.987 203.354L336.282 350.521C336.217 350.841 336.013 351.11 335.729 351.27C335.445 351.43 335.104 351.444 334.798 351.321C327.568 348.36 320.018 346.528 312.359 345.88C305.835 345.327 285.971 343.647 268.652 355.503C246.722 370.509 243.66 396.839 243.238 404.396H363.1L379.247 190.989L365.987 203.354Z" fill="white"/>
<path d="M361.227 109.314C361.227 102.478 365.531 97.08 370.639 97.08C375.747 97.08 380.051 102.478 380.051 109.314C380.051 116.151 375.747 121.548 370.639 121.548C365.531 121.548 361.227 116.151 361.227 109.314Z" fill="#1C202E" stroke="#1C202E" stroke-width="0.727358"/>
<path d="M389.694 111.503C389.723 111.416 389.759 111.329 389.81 111.256C391.36 107.903 392.247 104.019 392.247 99.873C392.247 87.2606 384.028 76.9976 373.932 76.9976C363.836 76.9976 355.617 87.2606 355.617 99.873C355.617 104.921 356.934 109.59 359.159 113.373C358.861 112.078 358.694 110.725 358.694 109.314C358.694 101.16 364.055 94.5342 370.652 94.5342C377.249 94.5342 382.609 101.168 382.609 109.314C382.609 115.177 379.824 120.246 375.809 122.632C381.722 121.883 386.814 117.599 389.708 111.503H389.694Z" fill="white"/>
<path d="M392.434 111.995C392.402 111.934 392.372 111.874 392.343 111.815C392.356 111.785 392.37 111.754 392.383 111.723C392.399 111.814 392.416 111.905 392.434 111.995Z" fill="#1C202E" stroke="#1C202E" stroke-width="0.727358"/>
<path d="M365.281 404.396H486.125C485.703 396.846 482.648 370.515 460.711 355.503C443.392 343.647 423.528 345.327 417.004 345.88C409.345 346.527 401.795 348.36 394.565 351.32C394.23 351.459 393.837 351.422 393.539 351.211C393.234 351.008 393.059 350.659 393.059 350.295L395.547 175.787L381.596 188.8L365.281 404.396Z" fill="white"/>
<path d="M356.269 65.3526C359.026 63.7815 362.481 64.0143 365.063 65.9418C366.008 66.6473 367.354 66.4509 368.06 65.5054C368.765 64.5598 368.569 63.2142 367.623 62.5087C365.427 60.8648 362.815 60.0356 360.197 60.0356C358.109 60.0356 356.029 60.5666 354.145 61.6358C350.108 63.9343 347.752 68.2766 347.985 72.9608C348.043 74.1028 348.981 74.9974 350.116 74.9974H350.21C350.799 74.9683 351.323 74.721 351.709 74.2919C352.094 73.87 352.29 73.3172 352.261 72.7499C352.109 69.7313 353.687 66.8292 356.269 65.3526Z" fill="#875EFC"/>
<path d="M541.968 72.9537C532.28 63.9053 517.544 63.4689 506.881 64.6982C506.299 64.7636 505.775 64.3636 505.68 63.789C505.062 60.0285 503.738 56.5881 501.753 53.5696C499.971 50.8565 498.683 48.8999 496.13 48.0198C493.163 46.9943 488.726 47.5907 487.249 49.9255C486.98 50.3474 486.536 51.9548 488.209 57.7592C489.184 61.1632 490.457 64.4872 491.984 67.644C492.108 67.8985 492.13 68.1968 492.035 68.4659C490.959 71.6953 490.02 75.0121 489.249 78.307C487.773 84.6132 486.849 91.1013 486.493 97.6039C486.493 97.6329 486.485 97.6548 486.478 97.6766C486.478 97.6984 486.478 97.7202 486.478 97.7348C483.161 115.955 478.448 133.514 472.462 149.915C466.425 166.456 460.475 177.759 451.041 179.155C450.408 179.25 449.747 179.293 449.107 179.293C448.634 179.293 448.176 179.272 447.739 179.221C434.327 177.642 428.093 153.465 426.624 146.824L416.645 156.134C418.099 160.513 431.534 199.289 450.481 201.587C453.922 202.002 457.311 201.376 457.347 201.369C469.313 199.078 476.266 187.076 480.005 180.625C494.93 154.862 501.149 108.071 502.247 98.9567C502.32 98.3603 502.866 97.9239 503.462 98.0039C503.6 98.0184 503.731 98.0621 503.848 98.1275C504.058 98.1348 504.269 98.2076 504.451 98.3385C506.255 99.6695 509.324 101.946 513.129 104.797L515.594 106.645C525.159 113.838 527.392 115.533 530.847 115.446C534.244 115.344 538.521 113.489 539.757 110.245C540.834 107.409 539.204 104.332 538.019 102.084C534.957 96.2946 529.909 93.4143 525.85 91.1013C521.18 88.4391 516.067 86.5335 510.656 85.4351C510.066 85.3115 509.681 84.7369 509.805 84.1477C509.928 83.5586 510.496 83.1731 511.092 83.2967C516.729 84.4387 522.061 86.4316 526.934 89.2101C530.818 91.4286 536.069 94.4253 539.459 100.208C541.306 99.3932 545.038 97.342 545.62 93.938C545.969 91.8941 545.06 90.003 543.663 88.2355C543.627 88.1991 543.598 88.1627 543.576 88.1191C542.485 86.7662 541.117 85.4861 539.815 84.2714C534.258 79.0853 526.723 75.5794 518.038 74.1393C517.442 74.0374 517.042 73.4774 517.144 72.8882C517.238 72.2918 517.813 71.8917 518.395 71.9936C527.508 73.5065 535.429 77.2014 541.299 82.6785C542.478 83.784 543.765 84.9842 544.885 86.2934C546.362 86.0025 547.998 85.4133 548.58 84.2277C549.846 81.6383 546.005 76.7141 541.99 72.961L541.968 72.9537Z" fill="#875EFC"/>
<path d="M394.996 108.478C394.996 101.641 399.3 96.2436 404.409 96.2436C409.517 96.2436 413.821 101.641 413.821 108.478C413.821 115.314 409.517 120.712 404.409 120.712C399.3 120.712 394.996 115.314 394.996 108.478Z" fill="#1C202E" stroke="#1C202E" stroke-width="0.727358"/>
<path d="M414.91 78.9396C412.212 77.4267 409.731 76.9976 407.775 76.9976H407.731C403.942 77.0121 400.232 78.5614 396.704 81.609C394.006 83.9366 392.646 86.4387 391.926 87.8934C393.519 91.4574 394.428 95.5379 394.428 99.873C394.428 100.048 394.421 100.215 394.421 100.382C396.559 96.3598 400.239 93.6977 404.415 93.6977C411.004 93.6977 416.372 100.331 416.372 108.478C416.372 115.3 412.605 121.046 407.513 122.734C407.586 122.734 407.659 122.741 407.739 122.741H407.768C414.059 122.741 418.314 118.544 419.711 117.17C423.922 113.024 426.053 107.197 426.053 99.8657V99.4729C426.083 97.109 426.141 90.8465 421.682 85.0349C419.42 82.0818 417.121 80.1688 414.961 78.9542C414.947 78.9469 414.932 78.9396 414.918 78.9323L414.91 78.9396Z" fill="white"/>
<path fill-rule="evenodd" clip-rule="evenodd" d="M442.862 124.13C443.771 124.13 444.338 124.727 444.571 125.287L444.585 125.258C444.818 125.832 444.825 126.676 444.134 127.316L379.676 187.425L379.647 187.454L337.075 227.153C336.318 227.859 335.431 227.735 334.856 227.386C334.274 227.037 333.751 226.309 334.02 225.313L353.84 151.763C354.175 150.541 353.92 149.26 353.149 148.257C352.378 147.253 351.207 146.678 349.942 146.678H315.625C315.007 146.678 314.454 146.395 314.105 145.893C313.756 145.391 313.668 144.773 313.879 144.198L353.091 35.5816C353.353 34.8542 354.051 34.3596 354.829 34.3596L426.249 34.0469C426.467 34.0469 427.376 34.2505 427.805 34.8906C428.06 35.2688 428.125 35.8216 428.002 36.5272L421.812 57.3587C416.982 55.9985 411.796 57.2423 408.043 60.7264C406.356 62.2902 406.188 64.9014 407.672 66.6689C407.716 66.7271 407.767 66.7853 407.81 66.8289C408.596 67.6799 409.658 68.1673 410.814 68.2109C411.963 68.2618 413.069 67.8472 413.913 67.0617C415.164 65.8979 416.851 65.3597 418.495 65.5124C418.488 65.5342 418.459 65.5924 418.459 65.5924L414.684 76.4446C412.029 75.1863 409.578 74.808 407.592 74.808H407.541C403.221 74.8226 399.031 76.5537 395.096 79.9505C392.863 81.878 391.43 83.9509 390.535 85.5147C386.826 79.0485 380.687 74.808 373.748 74.808C362.445 74.808 353.251 86.053 353.251 99.8655C353.251 113.678 362.445 124.923 373.748 124.923C380.694 124.923 386.84 120.675 390.55 114.194C391.452 115.773 392.87 117.846 395.081 119.766L395.092 119.775C396.571 121.057 401.017 124.909 407.548 124.923H407.577C408.014 124.923 408.429 124.901 408.843 124.872C408.952 124.908 409.069 124.93 409.192 124.93L442.811 124.13H442.862ZM349.942 77.172H350.16L350.153 77.1647C351.302 77.1065 352.364 76.6046 353.142 75.7463C353.92 74.8953 354.313 73.7825 354.255 72.6332C354.146 70.4293 355.288 68.3127 357.164 67.2435C359.172 66.0943 361.688 66.2689 363.572 67.6799C365.485 69.1128 368.198 68.7128 369.624 66.8071C371.05 64.8941 370.657 62.1811 368.751 60.7555C364.111 57.2787 357.884 56.8787 352.887 59.7299C348.138 62.4429 345.352 67.549 345.628 73.0624C345.745 75.3681 347.636 77.172 349.942 77.172Z" fill="#875EFC"/>
<path d="M376.084 139.514C376.058 139.528 376.033 139.544 376.009 139.56C374.374 140.642 373.024 142.09 371.995 143.857C371.817 144.161 371.789 144.531 371.919 144.858C372.048 145.186 372.321 145.436 372.659 145.537L391.303 151.116C391.595 151.204 391.91 151.172 392.178 151.027C392.447 150.882 392.647 150.636 392.734 150.344C393.008 149.429 393.402 147.798 393.395 145.968C393.388 144.139 392.979 142.011 391.536 140.228L391.535 140.228C388.967 137.059 382.264 135.473 376.084 139.514Z" fill="white" stroke="#1C202E" stroke-width="2.3" stroke-linejoin="round"/>
<path d="M354.09 72.7989L354.083 72.6588C353.967 70.3219 355.176 68.0743 357.175 66.9352C359.305 65.7193 361.977 65.9086 363.98 67.3955L363.981 67.3963C365.726 68.7015 368.219 68.3417 369.524 66.5968C370.829 64.852 370.469 62.3596 368.724 61.0542C364.199 57.6707 358.129 57.2817 353.259 60.0534C348.622 62.6977 345.913 67.6737 346.183 73.0516L354.09 72.7989ZM354.09 72.7989L354.095 72.8039M354.09 72.7989L354.095 72.8039M354.095 72.8039C354.111 73.807 353.753 74.7646 353.071 75.5169C352.359 76.3017 351.391 76.7604 350.342 76.8158H350.341H350.341H350.341H350.34H350.34H350.339H350.339H350.339H350.338H350.338H350.338H350.337H350.337H350.336H350.336H350.336H350.335H350.335H350.334H350.334H350.334H350.333H350.333H350.332H350.332H350.332H350.331H350.331H350.331H350.33H350.33H350.329H350.329H350.329H350.328H350.328H350.327H350.327H350.327H350.326H350.326H350.325H350.325H350.325H350.324H350.324H350.323H350.323H350.323H350.322H350.322H350.321H350.321H350.321H350.32H350.32H350.319H350.319H350.319H350.318H350.318H350.317H350.317H350.317H350.316H350.316H350.315H350.315H350.315H350.314H350.314H350.313H350.313H350.313H350.312H350.312H350.311H350.311H350.311H350.31H350.31H350.309H350.309H350.309H350.308H350.308H350.307H350.307H350.307H350.306H350.306H350.305H350.305H350.305H350.304H350.304H350.303H350.303H350.303H350.302H350.302H350.301H350.301H350.301H350.3H350.3H350.299H350.299H350.299H350.298H350.298H350.297H350.297H350.297H350.296H350.296H350.295H350.295H350.295H350.294H350.294H350.293H350.293H350.292H350.292H350.292H350.291H350.291H350.29H350.29H350.29H350.289H350.289H350.288H350.288H350.288H350.287H350.287H350.286H350.286H350.286H350.285H350.285H350.284H350.284H350.283H350.283H350.283H350.282H350.282H350.281H350.281H350.281H350.28H350.28H350.279H350.279H350.279H350.278H350.278H350.277H350.277H350.276H350.276H350.276H350.275H350.275H350.274H350.274H350.274H350.273H350.273H350.272H350.272H350.271H350.271H350.271H350.27H350.27H350.269H350.269H350.269H350.268H350.268H350.267H350.267H350.266H350.266H350.266H350.265H350.265H350.264H350.264H350.263H350.263H350.263H350.262H350.262H350.261H350.261H350.261H350.26H350.26H350.259H350.259H350.258H350.258H350.258H350.257H350.257H350.256H350.256H350.255H350.255H350.255H350.254H350.254H350.253H350.253H350.253H350.252H350.252H350.251H350.251H350.25H350.25H350.25H350.249H350.249H350.248H350.248H350.247H350.247H350.247H350.246H350.246H350.245H350.245H350.244H350.244H350.244H350.243H350.243H350.242H350.242H350.241H350.241H350.241H350.24H350.24H350.239H350.239H350.238H350.238H350.238H350.237H350.237H350.236H350.236H350.235H350.235H350.235H350.234H350.234H350.233H350.233H350.232H350.232H350.232H350.231H350.231H350.23H350.23H350.229H350.229H350.229H350.228H350.228H350.227H350.227H350.226H350.226H350.225H350.225H350.225H350.224H350.224H350.223H350.223H350.222H350.222H350.222H350.221H350.221H350.22H350.22H350.219H350.219H350.218H350.218H350.218H350.217H350.217H350.216H350.216H350.215H350.215H350.215H350.214H350.214H350.213H350.213H350.212H350.212H350.211H350.211H350.211H350.21H350.21H350.209H350.209H350.208H350.208H350.208H350.207H350.207H350.206H350.206H350.205H350.205H350.204H350.204H350.204H350.203H350.203H350.202H350.202H350.201H350.201H350.2H350.2H350.2H350.199H350.199H350.198H350.198H350.197H350.197H350.196H350.196H350.196H350.195H350.195H350.194H350.194H350.193H350.193H350.192H350.192H350.192H350.191H350.191H350.19H350.19H350.189H350.189H350.188H350.188H350.187H350.187H350.187H350.186H350.186H350.185H350.185H350.184H350.184H350.183H350.183H350.183H350.182H350.182H350.181H350.181H350.18H350.18H350.179H350.179H350.178H350.178H350.178H350.177H350.177H350.176H350.176H350.175H350.175H350.174H350.174H350.173H350.173H350.173H350.172H350.172H350.171H350.171H350.17H350.17H350.169H350.169H350.168H350.168H350.168H350.167H350.167H350.166H350.166H350.165H350.165H350.164H350.164H350.163H350.163H350.163H350.162H350.162H350.161H350.161H350.16H350.16H350.159H350.159H350.158H350.158H350.157H350.157H350.157H350.156H350.156H350.155H350.155H350.154H350.154H350.153H350.153H350.152H350.152H350.151H350.151H350.151H350.15H350.15H350.149H350.149H350.148H350.148H350.147H350.147H350.146H350.146H350.145H350.145H350.145H350.144H350.144H350.143H350.143H350.142H350.142H350.141H350.141H350.14H350.14H350.139H350.139H350.138H350.138H350.138H350.137H350.137H350.136H350.136H350.135H350.135H350.134H350.134H350.133H350.133C348.022 76.8158 346.29 75.1647 346.183 73.0517L354.095 72.8039ZM350.213 75.3538H350.222L350.231 75.3534C350.914 75.3196 351.529 75.0308 351.98 74.5372C352.431 74.0435 352.661 73.403 352.627 72.7315C352.481 69.848 353.991 67.0761 356.452 65.6685C359.088 64.1705 362.38 64.3906 364.848 66.2333L364.848 66.2333C365.955 67.0591 367.528 66.8292 368.354 65.7229C369.18 64.6162 368.95 63.0427 367.843 62.2172L367.843 62.217C365.583 60.5332 362.895 59.672 360.2 59.672C358.05 59.672 355.901 60.2187 353.968 61.3198C349.81 63.6871 347.385 68.1593 347.624 72.978C347.684 74.3078 348.783 75.3538 350.118 75.3538H350.213Z" fill="#1C202E" stroke="#1C202E" stroke-width="0.727358"/>
<path d="M543.458 71.3536C533.471 62.0289 518.67 61.2797 507.643 62.4144C506.916 58.7412 505.541 55.3663 503.57 52.3623C501.7 49.5256 500.093 47.0744 496.834 45.947C493.008 44.6232 487.495 45.4306 485.393 48.7473C484.731 49.7874 484.215 51.8168 486.099 58.3557C487.066 61.7307 488.317 65.0401 489.815 68.1896C488.775 71.3536 487.866 74.5831 487.11 77.8053C485.611 84.206 484.666 90.8032 484.302 97.4003C481.007 115.475 476.33 132.895 470.395 149.166C464.627 164.972 459.07 175.759 450.705 176.988C449.469 177.17 448.465 177.104 447.978 177.046C435.198 175.54 429.219 148.65 428.579 145.588C428.543 145.428 428.477 145.282 428.383 145.159L445.781 128.931C447.018 127.775 447.403 126.022 446.763 124.458C446.123 122.894 444.617 121.92 442.93 121.949L416.279 122.589C418.723 121.192 420.418 119.534 421.225 118.734C425.866 114.159 428.223 107.816 428.223 99.8733V99.5097C428.252 97.1894 428.317 90.1267 423.371 83.6823C421.189 80.8384 418.956 78.8745 416.803 77.5216L420.702 66.3203C420.724 66.2548 420.738 66.1966 420.745 66.1312C422.549 67.0695 423.749 68.917 423.873 71.019C424.004 73.3175 425.917 75.0995 428.186 75.0995C428.266 75.0995 428.354 75.0995 428.434 75.0995C430.812 74.9613 432.638 72.9174 432.507 70.539C432.201 65.0983 428.914 60.3269 424.04 58.123L430.296 37.0878C430.296 37.0878 430.296 37.0514 430.31 37.0296C430.31 37.0078 430.325 36.9932 430.325 36.9714C430.325 36.9496 430.325 36.9277 430.325 36.9059C430.325 36.8841 430.325 36.8623 430.325 36.8405C430.528 35.5967 430.347 34.5275 429.779 33.6837C428.885 32.3599 427.277 31.8799 426.411 31.8799H426.404L354.985 32.1926C353.297 32.1999 351.777 33.2691 351.203 34.8621L323.403 111.867C301.197 116.188 280.947 124.225 263.221 135.768C240.171 150.781 238.12 160.841 237.451 164.143C236.578 168.42 236.44 176.217 245.248 194.481C252.333 209.173 261.658 223.044 272.975 235.722C271.426 237.162 269.979 238.726 268.677 240.384C265.462 244.501 261.054 250.138 261.367 257.346C261.512 260.845 262.581 269.246 269.251 271.784C270.51 272.265 271.761 272.454 272.953 272.454C276.052 272.454 278.78 271.181 280.249 270.337C282.453 272.461 285.195 274.825 289.166 275.058C289.363 275.072 289.654 275.087 290.01 275.087C291.232 275.087 293.261 274.883 295.218 273.581C298.12 271.646 299.015 268.577 299.298 266.889C300.222 267.086 301.088 267.18 301.888 267.18C302.993 267.18 303.975 267.02 304.804 266.802C310.98 265.166 314.391 258.765 314.471 253.586C314.529 249.891 313.038 246.982 311.78 245.185C311.78 245.185 311.78 245.185 311.773 245.178C313.969 243.068 315.024 239.897 315.046 237.22C315.089 231.569 310.543 227.372 306.303 225.866C302.084 224.368 298.251 225.495 296.302 226.317C269.215 203.558 255.22 177.89 262.254 163.735C266.538 155.116 279.565 149.101 294.651 142.133C301.335 139.049 308.281 136.416 315.329 134.285L312.013 143.478C311.569 144.715 311.751 146.097 312.507 147.166C313.264 148.243 314.5 148.883 315.809 148.883H350.126C350.708 148.883 351.246 149.145 351.595 149.61C351.945 150.076 352.068 150.658 351.915 151.218L332.095 224.768C331.615 226.557 332.328 228.325 333.913 229.278C334.583 229.678 335.303 229.874 336.015 229.874C336.997 229.874 337.965 229.503 338.75 228.769L363.27 205.908L334.422 348.804C327.36 346.048 320.014 344.331 312.565 343.698C305.852 343.131 285.406 341.4 267.44 353.692C243.357 370.174 241.219 399.698 241.03 405.444C241.022 405.742 241.132 406.026 241.335 406.237C241.539 406.448 241.823 406.571 242.121 406.571H364.135C364.346 406.571 364.528 406.499 364.695 406.397C364.862 406.506 365.066 406.571 365.284 406.571H487.299C487.597 406.571 487.873 406.448 488.084 406.237C488.288 406.026 488.404 405.735 488.39 405.444C488.208 399.69 486.069 370.174 461.979 353.692C444.021 341.4 423.575 343.131 416.854 343.698C409.515 344.317 402.27 345.997 395.302 348.688L397.79 173.722L414.912 157.757C416.112 161.248 419.56 170.645 424.768 180.05C432.885 194.706 441.453 202.678 450.232 203.74C451.193 203.856 452.138 203.9 453.018 203.9C455.622 203.9 457.652 203.522 457.768 203.5C470.715 201.02 477.996 188.458 481.902 181.708C488.47 170.369 494.121 153.982 498.696 133.012C501.722 119.148 503.461 106.827 504.217 100.855C506.057 102.215 508.683 104.172 511.825 106.529L514.284 108.376C523.812 115.541 526.576 117.621 530.555 117.621C530.671 117.621 530.787 117.621 530.911 117.621C535.122 117.497 540.214 115.192 541.792 111.009C543.029 107.751 541.712 104.521 540.498 102.114C542.738 101.088 547.037 98.5932 547.771 94.2872C548.157 92.0324 547.466 90.0031 546.302 88.1774C548.419 87.5883 549.851 86.5845 550.542 85.1662C552.645 80.8529 547.022 74.6558 543.48 71.3463L543.458 71.3536ZM421.676 85.0425C426.135 90.8468 426.077 97.1167 426.048 99.4806V99.8733C426.048 107.205 423.909 113.031 419.705 117.177C418.309 118.559 414.054 122.749 407.762 122.749H407.733C407.66 122.749 407.587 122.741 407.507 122.741C412.599 121.047 416.367 115.308 416.367 108.485C416.367 100.332 411.006 93.7053 404.409 93.7053C400.234 93.7053 396.561 96.3675 394.415 100.39C394.415 100.215 394.422 100.048 394.422 99.8806C394.422 95.5456 393.513 91.4578 391.92 87.901C392.64 86.4463 394 83.9442 396.699 81.6166C400.227 78.569 403.936 77.0197 407.726 77.0052H407.769C409.726 77.0052 412.206 77.4416 414.905 78.9472C414.919 78.9545 414.934 78.9618 414.948 78.9691C417.109 80.191 419.4 82.104 421.669 85.0498L421.676 85.0425ZM404.409 121.076C399.019 121.076 394.633 115.424 394.633 108.478C394.633 101.532 399.019 95.8801 404.409 95.8801C409.799 95.8801 414.185 101.532 414.185 108.478C414.185 115.424 409.799 121.076 404.409 121.076ZM382.595 109.314C382.595 101.161 377.235 94.5345 370.638 94.5345C364.041 94.5345 358.68 101.168 358.68 109.314C358.68 110.726 358.847 112.078 359.145 113.373C356.92 109.584 355.603 104.921 355.603 99.8733C355.603 87.2609 363.822 76.9979 373.918 76.9979C384.014 76.9979 392.233 87.2609 392.233 99.8733C392.233 104.019 391.346 107.903 389.796 111.256C389.745 111.337 389.709 111.417 389.68 111.504C386.785 117.599 381.701 121.883 375.78 122.632C379.795 120.247 382.581 115.184 382.581 109.314H382.595ZM370.638 121.912C365.248 121.912 360.862 116.261 360.862 109.314C360.862 102.368 365.248 96.7166 370.638 96.7166C376.027 96.7166 380.413 102.368 380.413 109.314C380.413 116.261 376.027 121.912 370.638 121.912ZM392.553 110.318C392.706 111.802 393.033 113.22 393.513 114.537C392.793 113.482 392.291 112.537 391.942 111.824C392.16 111.329 392.364 110.827 392.553 110.318ZM430.325 70.6481C430.39 71.8264 429.488 72.8374 428.31 72.9102C427.146 72.9974 426.121 72.0737 426.055 70.8954C425.873 67.6805 423.829 64.8874 420.854 63.7818C419.982 63.4618 419.065 63.3018 418.149 63.3018C416.141 63.3018 414.141 64.0582 412.613 65.4693C412.192 65.8621 411.646 66.0657 411.079 66.0366C410.504 66.0148 409.98 65.7748 409.58 65.3456L409.515 65.2656C408.788 64.3928 408.868 63.0981 409.704 62.3271C413.144 59.134 417.989 58.1521 422.338 59.7668C426.913 61.4615 430.056 65.7311 430.332 70.6481H430.325ZM293.72 140.154C278.263 147.29 264.909 153.458 260.283 162.768C252.755 177.912 267.185 204.911 295.385 228.419C295.385 228.419 295.392 228.427 295.4 228.434C295.4 228.434 295.407 228.434 295.414 228.441C295.509 228.514 295.611 228.572 295.72 228.616C295.72 228.616 295.734 228.616 295.734 228.623C295.836 228.659 295.953 228.674 296.062 228.681C296.069 228.681 296.083 228.681 296.091 228.681C296.098 228.681 296.105 228.681 296.12 228.681C296.163 228.681 296.214 228.674 296.258 228.667C296.287 228.667 296.316 228.667 296.345 228.652C296.389 228.645 296.433 228.623 296.476 228.608C296.505 228.594 296.534 228.587 296.564 228.579C296.564 228.579 296.563 228.579 296.571 228.579C297.938 227.91 301.56 226.514 305.546 227.925C309.089 229.183 312.878 232.624 312.842 237.206C312.82 239.679 311.511 243.803 307.998 244.996C306.201 245.607 304.47 245.236 303.372 244.836C303.386 244.814 303.401 244.792 303.408 244.77C303.852 243.847 304.172 242.865 304.346 241.846C304.448 241.25 304.048 240.69 303.459 240.588C302.87 240.479 302.302 240.886 302.201 241.475C302.055 242.29 301.808 243.083 301.444 243.818C300.804 245.127 299.815 246.291 298.593 247.171C298.105 247.52 297.989 248.204 298.346 248.691C298.556 248.989 298.891 249.142 299.233 249.142C299.451 249.142 299.677 249.076 299.866 248.938C300.746 248.305 301.51 247.549 302.171 246.712C303.052 247.076 304.419 247.498 306.012 247.498C306.863 247.498 307.772 247.374 308.703 247.062C309.169 246.902 309.598 246.705 310.005 246.48C311.074 248.007 312.325 250.473 312.274 253.557C312.209 257.943 309.365 263.34 304.23 264.7C302.055 265.282 298.578 265.311 294.338 262.191C291.428 260.052 290.017 257.252 289.348 255.281C289.152 254.706 288.533 254.408 287.966 254.597C287.399 254.793 287.093 255.412 287.282 255.979C288.053 258.248 289.683 261.463 293.043 263.944C294.498 265.013 295.88 265.747 297.174 266.249C297.022 267.384 296.403 270.155 293.996 271.763C292.076 273.043 290.054 272.926 289.29 272.876C285.77 272.665 283.326 270.293 281.173 268.191C281.173 268.191 281.173 268.191 281.165 268.184C279.209 266.278 277.594 264.031 276.357 261.5C276.096 260.961 275.441 260.736 274.895 260.998C274.357 261.26 274.132 261.914 274.394 262.46C275.528 264.78 276.976 266.868 278.67 268.715C276.787 269.712 273.375 271.021 270.022 269.741C264.56 267.66 263.672 260.314 263.534 257.194C263.258 250.844 267.207 245.789 270.386 241.723C271.826 239.883 273.448 238.159 275.208 236.609C275.317 236.508 275.397 236.399 275.456 236.275C275.456 236.275 275.456 236.268 275.456 236.26C275.514 236.137 275.543 236.006 275.55 235.868V235.853C275.55 235.722 275.536 235.584 275.492 235.453C275.492 235.453 275.492 235.446 275.492 235.438C275.448 235.315 275.383 235.191 275.288 235.082C263.789 222.339 254.333 208.366 247.198 193.55C237.698 173.838 239.109 166.885 239.575 164.594C241.284 156.2 249.402 147.377 264.4 137.609C281.544 126.444 301.095 118.61 322.523 114.282L316.217 131.746C308.543 133.979 300.971 136.809 293.705 140.169L293.72 140.154ZM363.095 404.396H243.234C243.655 396.839 246.718 370.509 268.647 355.503C285.966 343.647 305.83 345.328 312.354 345.88C320.014 346.528 327.564 348.361 334.793 351.321C335.092 351.445 335.434 351.43 335.724 351.27C336.015 351.11 336.212 350.841 336.277 350.521L365.983 203.355L379.242 190.99L363.095 404.396ZM393.062 350.296C393.062 350.659 393.237 351.008 393.542 351.212C393.848 351.423 394.233 351.459 394.568 351.321C401.798 348.361 409.348 346.528 417.007 345.88C423.531 345.328 443.395 343.647 460.714 355.503C482.651 370.516 485.706 396.846 486.128 404.396H365.284L381.599 188.8L395.55 175.788L393.062 350.296ZM379.831 187.455C379.831 187.455 379.81 187.476 379.802 187.484L337.23 227.183C336.474 227.888 335.586 227.765 335.012 227.416C334.43 227.066 333.906 226.339 334.175 225.343L353.996 151.792C354.323 150.57 354.076 149.29 353.305 148.286C352.534 147.283 351.37 146.708 350.097 146.708H315.78C315.169 146.708 314.617 146.417 314.26 145.922C313.911 145.421 313.824 144.802 314.035 144.228L353.261 35.604C353.523 34.8766 354.221 34.382 354.999 34.382L426.419 34.0692C426.637 34.0692 427.546 34.2656 427.975 34.913C428.23 35.2912 428.295 35.844 428.172 36.5495L421.982 57.3811C417.152 56.0209 411.966 57.2574 408.213 60.7487C406.526 62.3198 406.358 64.931 407.842 66.6913C407.893 66.7494 407.937 66.8076 407.98 66.8513C408.766 67.695 409.835 68.1896 410.984 68.2333C412.141 68.2842 413.239 67.8696 414.083 67.084C415.334 65.9203 417.029 65.382 418.665 65.5348C418.651 65.5638 418.636 65.5857 418.629 65.6148L414.854 76.4669C412.199 75.2086 409.748 74.8304 407.762 74.8304H407.711C403.383 74.8449 399.201 76.5761 395.266 79.9728C393.033 81.9003 391.607 83.9733 390.705 85.5371C386.996 79.0709 380.857 74.8304 373.918 74.8304C362.615 74.8304 353.421 86.0754 353.421 99.8879C353.421 113.7 362.615 124.945 373.918 124.945C380.864 124.945 387.01 120.698 390.72 114.217C391.622 115.795 393.04 117.868 395.251 119.788C396.713 121.061 401.165 124.938 407.718 124.945H407.748C408.177 124.945 408.599 124.924 409.013 124.894C409.122 124.931 409.239 124.953 409.362 124.953L442.981 124.153C442.981 124.153 443.017 124.153 443.032 124.153C443.948 124.153 444.515 124.742 444.741 125.309C444.974 125.884 444.981 126.72 444.29 127.367L379.831 187.476V187.455ZM548.549 84.2133C547.968 85.3989 546.324 85.9881 544.855 86.279C543.734 84.9698 542.454 83.7624 541.269 82.664C535.392 77.187 527.471 73.4848 518.364 71.9791C517.775 71.8773 517.208 72.2846 517.113 72.8738C517.011 73.4702 517.419 74.0303 518.008 74.1249C526.692 75.565 534.221 79.0709 539.785 84.257C541.08 85.4644 542.454 86.7445 543.545 88.1047C543.574 88.1411 543.603 88.1847 543.633 88.2211C545.029 89.9885 545.938 91.8797 545.589 93.9236C545.007 97.3276 541.269 99.3715 539.428 100.193C536.039 94.4182 530.787 91.4142 526.903 89.1957C522.03 86.4172 516.698 84.4242 511.061 83.2823C510.465 83.1586 509.898 83.5441 509.774 84.1333C509.65 84.7225 510.036 85.2971 510.625 85.4207C516.037 86.519 521.15 88.4247 525.82 91.0869C529.878 93.3999 534.926 96.2802 537.988 102.07C539.174 104.317 540.803 107.394 539.727 110.231C538.497 113.475 534.221 115.337 530.816 115.432C527.362 115.526 525.129 113.824 515.564 106.63L513.098 104.783C509.294 101.932 506.225 99.6551 504.421 98.3241C504.239 98.1859 504.028 98.1204 503.817 98.1131C503.701 98.0477 503.57 98.004 503.431 97.9895C502.835 97.9095 502.289 98.3459 502.217 98.9423C501.118 108.063 494.9 154.847 479.974 180.61C476.236 187.062 469.289 199.063 457.317 201.354C457.281 201.354 453.898 201.994 450.451 201.573C431.51 199.274 418.076 160.499 416.614 156.12L426.593 146.81C428.055 153.451 434.289 177.628 447.709 179.206C448.145 179.257 448.603 179.279 449.076 179.279C449.716 179.279 450.378 179.235 451.011 179.141C460.445 177.752 466.394 166.448 472.431 149.901C478.418 133.492 483.131 115.933 486.448 97.7204C486.448 97.6985 486.448 97.6767 486.448 97.6622C486.448 97.6404 486.455 97.6113 486.462 97.5894C486.819 91.0868 487.742 84.5988 489.219 78.2926C489.99 74.9904 490.928 71.6809 492.005 68.4515C492.092 68.1823 492.077 67.8841 491.954 67.6295C490.426 64.4728 489.153 61.1488 488.179 57.7447C486.513 51.9404 486.957 50.333 487.219 49.9111C488.702 47.5763 493.132 46.9798 496.1 48.0054C498.653 48.8855 499.94 50.8494 501.722 53.5552C503.708 56.5737 505.032 60.0141 505.65 63.7745C505.744 64.3492 506.268 64.7419 506.85 64.6837C517.513 63.4545 532.249 63.8982 541.938 72.9393C545.953 76.6924 549.793 81.6166 548.528 84.206L548.549 84.2133Z" fill="#1C202E" stroke="#1C202E" stroke-width="0.4"/>
<path d="M261.041 258.252C251.856 261.712 239.395 268.101 230.63 280.471C219.059 296.783 220.704 313.911 220.098 336.019C218.911 379.839 218.206 406.408 204.299 426.131C181.367 458.668 128.272 464.489 94.6219 453.367C81.9754 449.19 61.1946 439.02 62.1836 429.85C62.8512 423.647 73.3714 419.136 76.2888 417.876C87.7238 412.97 100.135 414.477 100.21 412.945C100.222 412.525 99.3072 412.179 99.1218 412.105C92.508 409.559 25.7152 410.795 14.75 411.005" stroke="#1C202E" stroke-width="4" stroke-linecap="round" stroke-linejoin="round"/>
</svg>
